<?xml version="1.0" encoding="UTF-8"?>
<svg width="25px" height="25px" viewBox="0 0 25 25" version="1.1" xmlns="http://www.w3.org/2000/svg" xmlns:xlink="http://www.w3.org/1999/xlink">
    <!-- Generator: Sketch 47 (45396) - http://www.bohemiancoding.com/sketch -->
    <title>search-a</title>
    <desc>Created with Sketch.</desc>
    <defs></defs>
    <g id="Page-1" stroke="none" stroke-width="1" fill="none" fill-rule="evenodd">
        <g id="search-a" fill-rule="nonzero">
            <path d="M14.8033,4.1968 L14.8033001,4.19680015 C13.9639741,3.35613815 12.9360801,2.72799015 11.8051001,2.36460015 L11.8051,2.36460007 C12.161066,2.61288307 12.495029,2.89130807 12.8033,3.19680007 L12.8033001,3.19680014 C15.7331701,6.12331014 15.7359001,10.8708401 12.8093901,13.8007001 C10.8177401,15.7946401 7.87623007,16.5033901 5.19500007,15.6353901 L5.19500072,15.6353906 C8.58369072,18.0148306 13.2596807,17.1966706 15.6391007,13.8079806 C17.7325007,10.8266506 17.3798907,6.7720006 14.8032827,4.1967906 L14.8033,4.1968 Z" id="Shape" fill="#4A4A4A"></path>
            <path d="M24.56071,22.43951 L19.61071,17.48951 L19.61071,17.48951 C19.168255,17.033801 18.48058,16.919397 17.91441,17.20731 L15.84601,15.13891 L15.8460101,15.1389099 C18.9764601,11.6193299 18.6610001,6.22840987 15.1414141,3.09800987 C11.6218341,-0.0324401267 6.23091414,0.283019873 3.10051414,3.80260587 C-0.0299358609,7.32218587 0.285524139,12.7131059 3.80511014,15.8435059 C7.03613014,18.7172959 11.9065201,18.7183259 15.1387101,15.8459097 L17.2072101,17.9143097 L17.2072101,17.9143097 C16.9319341,18.4823427 17.0450041,19.1622497 17.4893101,19.6106097 L22.4393101,24.5606097 L22.4393101,24.5606097 C23.0312751,25.1401517 23.9809701,25.1300797 24.5605101,24.5381143 C25.1313411,23.9550463 25.1313851,23.0226343 24.5606091,22.4395143 L24.56071,22.43951 Z M9.50001,17.00001 L9.50001022,17.00001 C5.35787022,16.9998987 2.00010022,13.64194 2.00021022,9.49981 C2.00026366,7.51081 2.79039622,5.60328 4.19681022,4.19681 L4.19681006,4.19681015 C7.14135006,1.28357015 11.8900201,1.30895015 14.8033101,4.25349055 C17.6945501,7.17580055 17.6945601,11.8809206 14.8033309,14.8031906 L14.8033312,14.8031902 C13.3998812,16.2143002 11.4902512,17.0053202 9.50006122,16.9999602 L9.50001,17.00001 Z M23.85351,23.85351 L23.85351,23.85351 C23.65826,24.048701 23.34176,24.048701 23.14651,23.85351 L18.19651,18.90351 L18.19651,18.90351 C18.000423,18.709077 17.999082,18.392497 18.1935149,18.19641 C18.3879479,18.000323 18.7045279,17.998982 18.9006149,18.1934149 C18.901651,18.1944422 18.9026826,18.1954741 18.9037096,18.1965105 L23.8537096,23.1465105 L23.8537096,23.1465105 C24.0489006,23.3417605 24.0489006,23.6582605 23.8537096,23.8535105 L23.85351,23.85351 Z" id="Shape" fill="#000000"></path>
        </g>
    </g>
</svg>